<?xml version="1.0" encoding="UTF-8"?>
<svg version="1.1" xmlns="http://www.w3.org/2000/svg" width="500" height="500">
<path d="M0 0 C165 0 330 0 500 0 C500 165 500 330 500 500 C335 500 170 500 0 500 C0 335 0 170 0 0 Z " fill="#EDE9E8" transform="translate(0,0)"/>
<path d="M0 0 C2.67019682 1.41837416 3.34384741 2.36242365 5 5 C5 5.99 5 6.98 5 8 C6.32 8 7.64 8 9 8 C9.75 9.6875 9.75 9.6875 10 12 C7.47586639 15.61929135 4.73840634 18.10959792 1.1875 20.6875 C-4.08776783 24.83789454 -7.651037 29.20306405 -11 35 C-11.50789063 35.85851562 -12.01578125 36.71703125 -12.5390625 37.6015625 C-19.00953255 50.43405897 -17.12001865 66.28347972 -13.13671875 79.66015625 C-12.01269961 82.96268671 -10.76577529 85.94177595 -9.0546875 88.97265625 C-7.6824545 91.61039302 -6.71259676 94.33445882 -5.6875 97.125 C-4.09957702 101.40742979 -2.31989933 105.39380389 -0.14916992 109.39746094 C5.39602265 119.71920553 5.39602265 119.71920553 4.94921875 125.74609375 C2.3550294 131.90595898 -4.91125955 134.8810319 -10.5 137.875 C-18.74587736 140.52546058 -28.55173184 142.81608939 -37 140 C-37 139.34 -37 138.68 -37 138 C-37.86625 138.0825 -38.7325 138.165 -39.625 138.25 C-43.84417957 137.93746818 -45.75234357 136.65717344 -49 134 C-51.1521415 130.77178775 -51.03813435 128.44910527 -50.9375 124.625 C-50.91895517 121.98060466 -50.91895517 121.98060466 -51.5625 119.375 C-52 117 -52 117 -51 114 C-49.27478537 113.60721909 -47.54453752 113.23650849 -45.8125 112.875 C-44.36810547 112.56175781 -44.36810547 112.56175781 -42.89453125 112.2421875 C-39.62131391 111.96831506 -37.94565359 112.6465916 -35 114 C-32.29113059 114.16798262 -32.29113059 114.16798262 -30 114 C-30 110.99074766 -30.44918872 109.49679798 -31.5390625 106.74609375 C-31.86970703 105.90071045 -32.20035156 105.05532715 -32.54101562 104.18432617 C-32.89873047 103.27787354 -33.25644531 102.3714209 -33.625 101.4375 C-34.35886951 99.52684643 -35.09060714 97.61537279 -35.8203125 95.703125 C-36.86390726 92.9697695 -37.90794566 90.2368704 -38.96777344 87.50976562 C-43.1569445 76.62064998 -44.91773453 67.75677672 -44 56 C-43.95842773 55.24041992 -43.91685547 54.48083984 -43.87402344 53.69824219 C-43.20018559 41.46434178 -41.63489567 28.44502989 -33.36328125 18.76953125 C-30.84977531 16.17473974 -30.84977531 16.17473974 -30 13 C-27.54831678 10.41697661 -24.7677784 8.23496927 -22 6 C-21.31550781 5.40960938 -20.63101562 4.81921875 -19.92578125 4.2109375 C-13.74645399 -0.6091662 -7.68230438 -1.40240724 0 0 Z " fill="#020202" transform="translate(296,173)"/>
<path d="M0 0 C0.66 0 1.32 0 2 0 C2.33 1.32 2.66 2.64 3 4 C3.763125 3.34 4.52625 2.68 5.3125 2 C8 0 8 0 11 0 C11 0.66 11 1.32 11 2 C11.99 2 12.98 2 14 2 C15.59558314 8.43507911 16.17787548 13.46814506 15 20 C14.855625 21.19625 14.71125 22.3925 14.5625 23.625 C14 27 14 27 13.04321289 29.78833008 C11.9630398 33.11378691 11.32086981 36.31426433 10.74609375 39.76171875 C10.53146484 41.04626953 10.31683594 42.33082031 10.09570312 43.65429688 C9.9334021 44.64997681 9.9334021 44.64997681 9.76782227 45.66577148 C9.44105867 47.66571929 9.10492159 49.66392223 8.76757812 51.66210938 C6.85111516 63.25931575 5.83951532 74.43687539 5.9375 86.1875 C5.94201172 87.23486328 5.94652344 88.28222656 5.95117188 89.36132812 C5.96279876 91.90761536 5.97913719 94.4537746 6 97 C7.485 97.495 7.485 97.495 9 98 C9.495 96.515 9.495 96.515 10 95 C10.66 95 11.32 95 12 95 C12.35771484 94.12214844 12.35771484 94.12214844 12.72265625 93.2265625 C14.26255265 90.54233941 15.96351786 89.21931509 18.4375 87.375 C19.61119141 86.48941406 19.61119141 86.48941406 20.80859375 85.5859375 C22.51238212 84.35289279 24.25006271 83.16662486 26 82 C24.79618552 84.49361571 23.54571278 86.68143083 22 89 C22.928125 88.505 22.928125 88.505 23.875 88 C26 87 26 87 28 87 C30.53176909 86.82704005 30.53176909 86.82704005 33 86 C34.16666667 84.08333333 34.16666667 84.08333333 35 82 C38 80 38 80 41 80 C43.76509041 82.10066334 44.65027859 84.05573761 45.25 87.4375 C45.78560625 93.9221614 42.12399671 97.84500412 38.296875 102.62890625 C36 105 36 105 33 106 C32.31379969 107.32338632 31.65213539 108.65949948 31 110 C27.68805158 114.41593122 24.64023608 116.94166258 20 120 C19.505 121.485 19.505 121.485 19 123 C16.20044952 124.79196739 13.11417644 125.86501401 10 127 C8.77796875 127.46792969 8.77796875 127.46792969 7.53125 127.9453125 C3.45549338 129.17061908 1.12852937 129.57708888 -2.75 127.59375 C-4.49922918 126.35301767 -6.21033136 125.05608562 -7.87109375 123.69921875 C-9.98123733 121.81477957 -9.98123733 121.81477957 -13 121 C-17.63695695 112.28252093 -18.32312407 102.84053928 -18.1875 93.125 C-18.17960449 92.13266357 -18.17170898 91.14032715 -18.16357422 90.11791992 C-18.00715385 76.27912394 -17.65563422 62.61012537 -15 49 C-14.71553158 47.3273671 -14.43462832 45.65412601 -14.15625 43.98046875 C-12.63791428 34.99390272 -10.97677821 26.09014056 -8.5 17.3125 C-8.31074951 16.61229736 -8.12149902 15.91209473 -7.92651367 15.19067383 C-6.71113632 11.11887967 -5.50425902 9.32192772 -2 7 C-0.71157463 3.40932038 -0.71157463 3.40932038 0 0 Z " fill="#030303" transform="translate(191,185)"/>
<path d="M0 0 C5.24429361 2.93829217 9.28147718 6.56295437 12 12 C12.93462979 23.95100391 12.93462979 23.95100391 10.375 29.5625 C5.4056191 34.66265408 1.12564784 38.51462967 -6.1875 39.375 C-14.06819409 38.59984976 -19.98876978 35.91972734 -25.0390625 29.78125 C-26 28 -26 28 -26 24 C-26.66 24 -27.32 24 -28 24 C-28.02712153 22.083412 -28.04645097 20.1667127 -28.0625 18.25 C-28.07410156 17.18265625 -28.08570313 16.1153125 -28.09765625 15.015625 C-27.96382119 10.88279843 -27.88568481 8.97656997 -25.05859375 5.859375 C-17.0483633 -0.58701016 -10.0493518 -1.82522546 0 0 Z " fill="#FEDE5C" transform="translate(348,144)"/>
<path d="M0 0 C3.53659092 0.56002416 4.95559692 1.67774324 7.1875 4.4375 C7.69667969 5.05496094 8.20585937 5.67242187 8.73046875 6.30859375 C12.50493197 11.33734013 11.48563187 18.00142044 11 24 C8.44959374 29.59127525 3.95294272 33.40995392 -1.4375 36.3125 C-7.04031563 37.81569444 -11.66414878 37.0822834 -17 35 C-13.72718108 33.90906036 -11.72704011 34.08952747 -8.3125 34.3125 C-2.78229306 34.35267099 0.30905839 33.44264139 4.44140625 29.765625 C8.51384122 25.15224002 9.57012263 20.19448759 9.35546875 14.21484375 C8.74418816 10.40609547 7.2862657 8.11186165 5 5 C2.91665365 3.7483533 2.91665365 3.7483533 1 3 C0.67 2.01 0.34 1.02 0 0 Z " fill="#D7C98C" transform="translate(349,146)"/>
<path d="M0 0 C0 3 0 3 -1 6 C-1.66 6 -2.32 6 -3 6 C-2.69635055 15.10948361 -1.80778768 22.31180177 4.75 29 C5.86375 29.99 5.86375 29.99 7 31 C3.52556925 30.43351673 2.01266113 29.35584027 -0.25 26.6875 C-1.03117187 25.79611328 -1.03117187 25.79611328 -1.828125 24.88671875 C-3 23 -3 23 -3 19 C-3.66 19 -4.32 19 -5 19 C-5.02712153 17.083412 -5.04645097 15.1667127 -5.0625 13.25 C-5.07410156 12.18265625 -5.08570313 11.1153125 -5.09765625 10.015625 C-5.01424931 7.44001881 -4.87615525 5.40942695 -4 3 C-1.9375 1.25 -1.9375 1.25 0 0 Z " fill="#F1DD89" transform="translate(325,149)"/>
<path d="M0 0 C4.35417442 0.72726991 6.02424195 2.76932142 8.73828125 6.078125 C10.42595265 8.64881951 10.85145493 10.95482602 11 14 C9.32506349 11.8465102 7.87593746 9.77345101 6.5625 7.375 C4.85721373 4.78296486 3.73009028 4.27404213 1 3 C0.67 2.01 0.34 1.02 0 0 Z " fill="#EDDA8B" transform="translate(349,146)"/>
<path d="M0 0 C0 3 0 3 -1 6 C-1.66 6 -2.32 6 -3 6 C-3.33 10.29 -3.66 14.58 -4 19 C-4.33 19 -4.66 19 -5 19 C-5.02712153 17.083412 -5.04645097 15.1667127 -5.0625 13.25 C-5.07410156 12.18265625 -5.08570313 11.1153125 -5.09765625 10.015625 C-5.01424931 7.44001881 -4.87615525 5.40942695 -4 3 C-1.9375 1.25 -1.9375 1.25 0 0 Z " fill="#F5E7B2" transform="translate(325,149)"/>
</svg>
